<svg id="Calque_1" data-name="Calque 1" xmlns="http://www.w3.org/2000/svg" viewBox="0 0 215.1 61.2"><defs><style>.cls-1{fill:#c20345;}.cls-2{fill:#856357;}.cls-3{fill:#a9a727;}</style></defs><path class="cls-1" d="M105.9,59.6a20.36,20.36,0,0,0-8.5-4.1,16.2,16.2,0,0,1-.1,2.2,20.5,20.5,0,0,1,7.1,3.5,10.75,10.75,0,0,1,2.8,3.8h2.4A12.49,12.49,0,0,0,105.9,59.6Z" transform="translate(-50.5 -42.9)"/><path class="cls-1" d="M102.6,87.6v-.1c-3.9,6.3-11.1,12.9-26.5,12.9H76c-7.8,0-14.7-4.5-18.4-8.7a19.46,19.46,0,0,1-4.4-7.5c-.1-.5-.3-1.1-.4-1.6-1.1-6.6,2.4-13.1,6-19.2,2.9-5,6.3-10,11.5-11.3l1.6-.3c3.5-.4,7.3.7,10.4,1.6l1.9.5v-.1a14.79,14.79,0,0,1-.1-2.2L83,51.3c-3.9-1.1-8.7-2.5-13.2-1.3-6,1.5-9.6,6.9-12.8,12.3-3.8,6.5-7.4,13.4-6.3,20.7a12.86,12.86,0,0,0,.4,1.9,21.19,21.19,0,0,0,4.8,8.4A27.65,27.65,0,0,0,76,102.7h.1a45.78,45.78,0,0,0,5.3-.3c11.8-1.3,18.2-6.7,22-12.2l-.1-.1A5.53,5.53,0,0,1,102.6,87.6Z" transform="translate(-50.5 -42.9)"/><path class="cls-2" d="M86,54.1a11.77,11.77,0,0,0,4.3,7.5,3.06,3.06,0,0,0,1.5.6H92a2.88,2.88,0,0,0,1.7-1,9.53,9.53,0,0,0,1.3-10c-1.5-3.2-4.4-5.6-6.8-7.3l-1.4-1-.3,1.7a48.21,48.21,0,0,0-.6,9A1.09,1.09,0,0,0,86,54.1Z" transform="translate(-50.5 -42.9)"/><path class="cls-3" d="M81.9,69.9l-.4.1c-3.1.8-6.1,1.5-9.1.8A22.5,22.5,0,0,1,70,70l-2.7-.9c-2.4-.5-4.7-.1-5.9,1.3a5.57,5.57,0,0,0-.6,6,14.33,14.33,0,0,0,3.5,4.5c4.6,4.7,9.6,9.3,16,10a12.75,12.75,0,0,0,2,.1,19.22,19.22,0,0,0,14.3-6.3c2.7-3,3.9-6.5,3.2-9.5-.8-3.9-4.8-6.1-8.2-6.6C88.1,68.3,85,69.1,81.9,69.9Zm15.7,5.8c.5,2.4-.5,5.2-2.7,7.7a17.36,17.36,0,0,1-14.5,5.5C74.7,88.3,70,84,65.7,79.6a12.73,12.73,0,0,1-3-3.9,3.74,3.74,0,0,1,.2-3.7,3.18,3.18,0,0,1,2.5-.9,7.72,7.72,0,0,1,1.5.2c.8.2,1.7.5,2.6.8a19.75,19.75,0,0,0,2.6.8c3.4.8,6.9,0,10.1-.8l.4-.1c2.9-.7,5.8-1.5,8.7-1.1C93.9,71.2,97,73,97.6,75.7Z" transform="translate(-50.5 -42.9)"/><path class="cls-3" d="M198.7,89.4a2,2,0,0,1-.9.2c-.4,0-.8.1-1.2.1a2.46,2.46,0,0,1-1.7-.5,1.45,1.45,0,0,1-.3-1.5l2.3-13.6a3.25,3.25,0,0,1,.7-1.7,9.83,9.83,0,0,1,1.5-1.2,12.67,12.67,0,0,1,3.3-1.2,18.59,18.59,0,0,1,4.2-.5q3.75,0,3.3,2.1l-.3.9c-.2.3-.3.5-.5.8-.3-.1-.6-.1-1-.2a5.7,5.7,0,0,0-1.3-.1,10.12,10.12,0,0,0-3.1.4,8.15,8.15,0,0,0-2.5.9Z" transform="translate(-50.5 -42.9)"/><path class="cls-3" d="M214.7,82a4.56,4.56,0,0,0,1.7,3.5,6.56,6.56,0,0,0,4.2,1.1,11.42,11.42,0,0,0,3.3-.5,9.72,9.72,0,0,0,2.5-1.2,1.82,1.82,0,0,1,.9,1.9,2,2,0,0,1-.8,1.3,5.45,5.45,0,0,1-1.7,1,15.46,15.46,0,0,1-2.3.7,12.74,12.74,0,0,1-2.8.2,11.41,11.41,0,0,1-4.3-.7,6.69,6.69,0,0,1-3.1-2,7.43,7.43,0,0,1-1.7-3.3,11.31,11.31,0,0,1,0-4.5,14.26,14.26,0,0,1,1.5-4.4,10,10,0,0,1,2.6-3.1,10.3,10.3,0,0,1,3.4-1.9,12.27,12.27,0,0,1,3.9-.7,10.06,10.06,0,0,1,3.6.6,6.77,6.77,0,0,1,2.6,1.8,7,7,0,0,1,1.4,2.7,7.71,7.71,0,0,1,.1,3.4,2.19,2.19,0,0,1-.8,1.5,3.35,3.35,0,0,1-1.6.6Zm6.7-9.1a6.29,6.29,0,0,0-4.1,1.5,7,7,0,0,0-2.3,4.4l10.6-1.4a4.49,4.49,0,0,0-.9-3.2A3.9,3.9,0,0,0,221.4,72.9Z" transform="translate(-50.5 -42.9)"/><path class="cls-3" d="M247.7,84.1a6,6,0,0,1-2.8,4.3,11.74,11.74,0,0,1-6.3,1.6,26.61,26.61,0,0,1-3-.2,12.52,12.52,0,0,1-2.3-.7,4,4,0,0,1-1.4-1.1,1.74,1.74,0,0,1-.3-1.4,3.08,3.08,0,0,1,.5-1.2,4.3,4.3,0,0,1,1-.9,11.71,11.71,0,0,0,2.5,1.4,8.62,8.62,0,0,0,3.4.6,6.12,6.12,0,0,0,3-.6,2.42,2.42,0,0,0,1.3-1.8,2,2,0,0,0-.4-1.7,4.75,4.75,0,0,0-1.9-1l-2.7-.7a8.85,8.85,0,0,1-3.9-2,4.06,4.06,0,0,1-.8-3.5,5,5,0,0,1,.9-2.3,7.69,7.69,0,0,1,1.8-1.8,8.45,8.45,0,0,1,2.7-1.2,12.2,12.2,0,0,1,3.4-.4,21.3,21.3,0,0,1,2.7.2,16.7,16.7,0,0,1,2,.6,2.47,2.47,0,0,1,1.2,1,1.38,1.38,0,0,1,.3,1.2,2.22,2.22,0,0,1-.5,1.1,2.36,2.36,0,0,1-.9.8,14.12,14.12,0,0,0-2.1-1,7.77,7.77,0,0,0-3.1-.5,6.24,6.24,0,0,0-2.9.6,2.44,2.44,0,0,0-1.3,1.7,1.65,1.65,0,0,0,.3,1.4,3.72,3.72,0,0,0,1.8.9l2.3.6a9.52,9.52,0,0,1,4.3,2.2A3.53,3.53,0,0,1,247.7,84.1Z" transform="translate(-50.5 -42.9)"/><path class="cls-3" d="M257.2,85.9a3.84,3.84,0,0,0,2.4.6,7.72,7.72,0,0,0,1.5-.2,6.61,6.61,0,0,0,1.5-.5,2.51,2.51,0,0,1,.4.7,3.08,3.08,0,0,1,.1,1,2.67,2.67,0,0,1-1.4,1.8,6.78,6.78,0,0,1-3.5.7,7.42,7.42,0,0,1-4.8-1.4c-1.1-.9-1.5-2.4-1.1-4.6l3.2-19.3a6.37,6.37,0,0,1,.9-.2,4.87,4.87,0,0,1,1.2-.1,2.46,2.46,0,0,1,1.7.5,1.71,1.71,0,0,1,.3,1.5l-.7,4.1h6.5a6.37,6.37,0,0,1,.2.7v1q-.3,1.8-1.8,1.8h-5.4l-1.6,9.8A1.83,1.83,0,0,0,257.2,85.9Z" transform="translate(-50.5 -42.9)"/><path class="cls-2" d="M110.6,82.9v6.5a3.09,3.09,0,0,0-.8.2,4.48,4.48,0,0,1-1.2.1,2.46,2.46,0,0,1-1.7-.5,2.07,2.07,0,0,1-.5-1.5V71.4a1.22,1.22,0,0,1,.3-.9,1.93,1.93,0,0,1,.9-.5,10.38,10.38,0,0,1,1.2-.3,5.85,5.85,0,0,1,1.3-.2,6.6,6.6,0,0,1,1.4-.1h1.3c2.9,0,5,.6,6.4,1.8a6.29,6.29,0,0,1,2.2,4.9,6.42,6.42,0,0,1-2.1,5c-1.4,1.2-3.4,1.8-6.1,1.8Zm2.3-3.4a5.69,5.69,0,0,0,3.1-.8,2.8,2.8,0,0,0,1.1-2.6,3,3,0,0,0-1.1-2.5,5.22,5.22,0,0,0-3.1-.8,16.59,16.59,0,0,0-2.4.2v6.6h2.4Z" transform="translate(-50.5 -42.9)"/><path class="cls-2" d="M129.2,89.4a3.09,3.09,0,0,0-.8.2,4.48,4.48,0,0,1-1.2.1,2.46,2.46,0,0,1-1.7-.5,2.07,2.07,0,0,1-.5-1.5V71.4a1.22,1.22,0,0,1,.3-.9,1.93,1.93,0,0,1,.9-.5,14.43,14.43,0,0,1,2.4-.5,27.15,27.15,0,0,1,2.9-.1c2.9,0,5,.6,6.4,1.8a6.07,6.07,0,0,1,2.1,4.9,5.84,5.84,0,0,1-1.1,3.5,6.63,6.63,0,0,1-2.9,2.3c1,1.2,1.9,2.4,2.7,3.5s1.5,2,2,2.6a2.54,2.54,0,0,1-.9,1.3,2.39,2.39,0,0,1-1.4.5,2.07,2.07,0,0,1-1.5-.5,6.53,6.53,0,0,1-1.1-1.2l-3.7-5.5h-3v6.8Zm2.6-10.1a5.57,5.57,0,0,0,3-.8,3,3,0,0,0,1.1-2.5c0-2.2-1.5-3.3-4.4-3.3a4.87,4.87,0,0,0-1.2.1c-.4,0-.8.1-1.1.1v6.4Z" transform="translate(-50.5 -42.9)"/><path class="cls-2" d="M162.8,79.6a12.51,12.51,0,0,1-.7,4.5,9.33,9.33,0,0,1-2.1,3.3,9.19,9.19,0,0,1-3.1,2,12.27,12.27,0,0,1-3.9.7,10,10,0,0,1-3.9-.7,7.24,7.24,0,0,1-3.1-2,9.33,9.33,0,0,1-2.1-3.3,13.88,13.88,0,0,1,.1-9,8.12,8.12,0,0,1,2.1-3.2,9.19,9.19,0,0,1,3.1-2,12.27,12.27,0,0,1,3.9-.7,10,10,0,0,1,3.9.7,7.89,7.89,0,0,1,3.1,2,9.88,9.88,0,0,1,2.1,3.2A19.61,19.61,0,0,1,162.8,79.6Zm-4.3,0a7.57,7.57,0,0,0-1.5-5.1,4.9,4.9,0,0,0-4-1.8,5.13,5.13,0,0,0-4,1.7,7.87,7.87,0,0,0-1.5,5.2,7.87,7.87,0,0,0,1.5,5.2,4.82,4.82,0,0,0,4,1.7,5.13,5.13,0,0,0,4-1.7A7.87,7.87,0,0,0,158.5,79.6Z" transform="translate(-50.5 -42.9)"/><path class="cls-2" d="M173.5,82.3l-5,7.3h-.8a3.56,3.56,0,0,1-1.9-.5,1.82,1.82,0,0,1-.6-1.4,2.13,2.13,0,0,1,.3-1.2,7.44,7.44,0,0,1,.9-1.2l4.5-5.8-5.7-7.9a3.07,3.07,0,0,1,.9-1.4,2.35,2.35,0,0,1,1.7-.6,2,2,0,0,1,1.3.4,6.53,6.53,0,0,1,1.1,1.2l3.6,5.4,4.7-6.8a3.73,3.73,0,0,1,1.2-.2,2.86,2.86,0,0,1,1.7.5,1.61,1.61,0,0,1,.6,1.3,2.66,2.66,0,0,1-.3,1.2,4.7,4.7,0,0,1-.9,1.2c-.7.9-1.4,1.9-2.2,2.8l-2.2,2.8,6,8.3a2.73,2.73,0,0,1-.8,1.4,2.31,2.31,0,0,1-1.7.5,2,2,0,0,1-1.3-.4,6.75,6.75,0,0,1-1.1-1.2Z" transform="translate(-50.5 -42.9)"/><path class="cls-2" d="M188,89.7a2.46,2.46,0,0,1-1.7-.5,2.07,2.07,0,0,1-.5-1.5V69.8a3.09,3.09,0,0,0,.8-.2,4.1,4.1,0,0,1,1.1-.1,2.5,2.5,0,0,1,1.7.4,1.84,1.84,0,0,1,.6,1.6V89.4a3.09,3.09,0,0,0-.8.2C188.8,89.6,188.4,89.7,188,89.7Z" transform="translate(-50.5 -42.9)"/><path class="cls-2" d="M146.2,97.5a.76.76,0,0,1-.2.4c-.1.1-.2.2-.3.2a4.35,4.35,0,0,0-.7-.4,2.6,2.6,0,0,0-2,0,2.18,2.18,0,0,0-.8.5,3.49,3.49,0,0,0-.6.9,2.13,2.13,0,0,0-.3,1.2,2.42,2.42,0,0,0,.4,2,2.24,2.24,0,0,0,1.7.7,3,3,0,0,0,1-.2,2,2,0,0,0,.8-.4c.1.1.2.1.2.2s.1.2.1.4-.1.2-.1.3l-.3.3a3.39,3.39,0,0,1-.8.3,4.12,4.12,0,0,1-1.2.1,5.9,5.9,0,0,1-1.4-.2,4.13,4.13,0,0,1-1.1-.7,2.28,2.28,0,0,1-.6-1.2,8.62,8.62,0,0,1-.1-1.7,6,6,0,0,1,.5-1.6,6.23,6.23,0,0,1,.9-1.2,3.75,3.75,0,0,1,1.2-.7,3.4,3.4,0,0,1,1.4-.2,2.48,2.48,0,0,1,.9.1,6.37,6.37,0,0,1,.7.2,1.38,1.38,0,0,1,.4.3C146.1,97.3,146.2,97.4,146.2,97.5Z" transform="translate(-50.5 -42.9)"/><path class="cls-2" d="M147.9,103.9c-.1,0-.1,0-.2.1h-.3a.75.75,0,0,1-.5-.1c-.1-.1-.1-.2-.1-.4l.5-3.9a.76.76,0,0,1,.2-.5l.4-.4c.3-.1.6-.3.9-.4a4.87,4.87,0,0,1,1.2-.1c.7,0,1,.2,1,.6a.37.37,0,0,1-.1.3.31.31,0,0,0-.1.2h-.7a2.77,2.77,0,0,0-.9.1,4.88,4.88,0,0,0-.7.3Z" transform="translate(-50.5 -42.9)"/><path class="cls-2" d="M152.4,101.7c.1.5.2.8.5,1a2.13,2.13,0,0,0,1.2.3,2.39,2.39,0,0,0,.9-.2,4.88,4.88,0,0,0,.7-.3.55.55,0,0,1,.3.5.76.76,0,0,1-.2.4,2.19,2.19,0,0,1-.5.3,6.37,6.37,0,0,1-.7.2c-.3,0-.5.1-.8.1a3.73,3.73,0,0,1-1.2-.2,1.46,1.46,0,0,1-.9-.6,4.05,4.05,0,0,1-.5-.9,2.85,2.85,0,0,1,0-1.3,5,5,0,0,1,.4-1.3,2.18,2.18,0,0,1,.7-.9l.9-.6a2,2,0,0,1,1.1-.2,3,3,0,0,1,1,.2,1.79,1.79,0,0,1,.7.5,2,2,0,0,1,.4.8,3.08,3.08,0,0,1,.1,1,.52.52,0,0,1-.2.4.76.76,0,0,1-.4.2Zm1.9-2.6a1.92,1.92,0,0,0-1.2.4,2.26,2.26,0,0,0-.6,1.3l3-.4a1.22,1.22,0,0,0-.3-.9A1,1,0,0,0,154.3,99.1Zm1.3-3.6a.76.76,0,0,1,.5.2.52.52,0,0,1,.2.4c0,.1-.1.2-.1.3l-.3.3-1.2,1a.76.76,0,0,1-.5-.2c-.1-.1-.1-.2-.1-.4s0-.1.1-.2.1-.1.2-.2Z" transform="translate(-50.5 -42.9)"/><path class="cls-2" d="M160.4,98.1a2.86,2.86,0,0,1,1.7.5,1.72,1.72,0,0,1,.5,1.5l-.4,2.8a.52.52,0,0,1-.2.4,1.38,1.38,0,0,1-.4.3,6.89,6.89,0,0,1-.8.3,4.12,4.12,0,0,1-1.2.1,3,3,0,0,1-1.8-.5,1.23,1.23,0,0,1-.5-1.3,1.85,1.85,0,0,1,.7-1.2,3.33,3.33,0,0,1,1.5-.5l1.7-.2V100a1.08,1.08,0,0,0-.2-.8c-.2-.2-.5-.2-.9-.2a2.77,2.77,0,0,0-.9.1,6.89,6.89,0,0,0-.8.3l-.2-.2c0-.1-.1-.2,0-.3s.1-.2.1-.3.2-.2.3-.2a1.88,1.88,0,0,1,.8-.2C159.7,98.2,160,98.1,160.4,98.1Zm-.7,5a1.48,1.48,0,0,0,.7-.1c.2-.1.4-.1.5-.2l.2-1.5-1.3.1a2,2,0,0,0-.9.2.92.92,0,0,0-.4.6c0,.3,0,.5.2.6A1.69,1.69,0,0,0,159.7,103.1Z" transform="translate(-50.5 -42.9)"/><path class="cls-2" d="M165.3,102.9a1.45,1.45,0,0,0,.7.2.6.6,0,0,0,.4-.1c.2,0,.3-.1.4-.1s.1.1.1.2v.3a.66.66,0,0,1-.4.5,2.51,2.51,0,0,1-1,.2,2,2,0,0,1-1.4-.4,1.7,1.7,0,0,1-.4-1.3l.7-5.6c.1,0,.1,0,.2-.1h.3a.75.75,0,0,1,.5.1c.1.1.1.2.1.4l-.2,1.2h1.9a.31.31,0,0,0,.1.2v.3a.47.47,0,0,1-.5.5h-1.5l-.4,2.8C165.1,102.5,165.1,102.7,165.3,102.9Z" transform="translate(-50.5 -42.9)"/><path class="cls-2" d="M169.3,101.7c.1.5.2.8.5,1a2.13,2.13,0,0,0,1.2.3,2.39,2.39,0,0,0,.9-.2,4.88,4.88,0,0,0,.7-.3.55.55,0,0,1,.3.5.76.76,0,0,1-.2.4,2.19,2.19,0,0,1-.5.3,6.37,6.37,0,0,1-.7.2c-.3,0-.5.1-.8.1a3.73,3.73,0,0,1-1.2-.2,1.46,1.46,0,0,1-.9-.6,4.05,4.05,0,0,1-.5-.9,2.85,2.85,0,0,1,0-1.3,5,5,0,0,1,.4-1.3,2.18,2.18,0,0,1,.7-.9l.9-.6a4.25,4.25,0,0,1,1.1-.2,3,3,0,0,1,1,.2,1.79,1.79,0,0,1,.7.5,2,2,0,0,1,.4.8,3.08,3.08,0,0,1,.1,1,.52.52,0,0,1-.2.4.76.76,0,0,1-.4.2Zm1.8-2.6a1.92,1.92,0,0,0-1.2.4,1.78,1.78,0,0,0-.6,1.3l3-.4a1.22,1.22,0,0,0-.3-.9C171.9,99.2,171.6,99.1,171.1,99.1Z" transform="translate(-50.5 -42.9)"/><path class="cls-2" d="M175.1,98.3c.1,0,.1,0,.2-.1h.3a.75.75,0,0,1,.5.1c.1.1.1.2.1.5l-.4,2.9a1,1,0,0,0,.2,1,1.33,1.33,0,0,0,1,.3,1.48,1.48,0,0,0,.7-.1c.2-.1.4-.1.5-.2l.6-4.4a.37.37,0,0,0,.3-.1h.3a.75.75,0,0,1,.5.1c.1.1.1.2.1.5l-.5,4c0,.2-.1.3-.1.4s-.2.2-.4.3a4.65,4.65,0,0,1-.9.3,4.87,4.87,0,0,1-1.2.1,3.56,3.56,0,0,1-1.9-.5,1.86,1.86,0,0,1-.5-1.7Z" transform="translate(-50.5 -42.9)"/><path class="cls-2" d="M182.3,103.9c-.1,0-.1,0-.2.1h-.3a.75.75,0,0,1-.5-.1c-.1-.1-.1-.2-.1-.4l.5-3.9a.76.76,0,0,1,.2-.5l.4-.4c.3-.1.6-.3.9-.4a4.87,4.87,0,0,1,1.2-.1c.7,0,1,.2,1,.6a.37.37,0,0,1-.1.3.35.35,0,0,1-.1.2h-.7a2.77,2.77,0,0,0-.9.1,4.88,4.88,0,0,0-.7.3Z" transform="translate(-50.5 -42.9)"/><path class="cls-2" d="M191.4,98.1a1.7,1.7,0,0,1,.7.1c.2.1.4.1.5.2l.3-2.3c.1,0,.1,0,.2-.1h.3a.75.75,0,0,1,.5.1c.1.1.1.2.1.4l-.8,6.2a.52.52,0,0,1-.2.4,1.38,1.38,0,0,1-.4.3,6.89,6.89,0,0,1-.8.3,4.55,4.55,0,0,1-2.3-.1,2.62,2.62,0,0,1-.9-.5,1.93,1.93,0,0,1-.5-.9,2.85,2.85,0,0,1,0-1.3,4,4,0,0,1,.4-1.3,2.18,2.18,0,0,1,.7-.9,3.13,3.13,0,0,1,1-.5C190.7,98.2,191,98.1,191.4,98.1Zm1.1,1.4a.76.76,0,0,0-.4-.2,1.27,1.27,0,0,0-.6-.1,1.7,1.7,0,0,0-.7.1,1.84,1.84,0,0,0-1,1,9.44,9.44,0,0,0-.3.9,1.8,1.8,0,0,0,.3,1.5,1.66,1.66,0,0,0,1.2.5,1.27,1.27,0,0,0,.6-.1c.2-.1.3-.1.5-.2Z" transform="translate(-50.5 -42.9)"/><path class="cls-2" d="M196.1,101.7c.1.5.2.8.5,1a2.13,2.13,0,0,0,1.2.3,2.39,2.39,0,0,0,.9-.2,4.88,4.88,0,0,0,.7-.3.55.55,0,0,1,.3.5.76.76,0,0,1-.2.4,2.19,2.19,0,0,1-.5.3,6.37,6.37,0,0,1-.7.2c-.3,0-.5.1-.8.1a3.73,3.73,0,0,1-1.2-.2,1.46,1.46,0,0,1-.9-.6,4.05,4.05,0,0,1-.5-.9,2.85,2.85,0,0,1,0-1.3,5,5,0,0,1,.4-1.3,2.18,2.18,0,0,1,.7-.9l.9-.6A4.25,4.25,0,0,1,198,98a3,3,0,0,1,1,.2,1.79,1.79,0,0,1,.7.5,2,2,0,0,1,.4.8,3.08,3.08,0,0,1,.1,1,.52.52,0,0,1-.2.4.76.76,0,0,1-.4.2Zm1.8-2.6a1.92,1.92,0,0,0-1.2.4,1.78,1.78,0,0,0-.6,1.3l3-.4a1.22,1.22,0,0,0-.3-.9C198.7,99.2,198.4,99.1,197.9,99.1Z" transform="translate(-50.5 -42.9)"/><path class="cls-2" d="M207,99.2a1.48,1.48,0,0,0-.7.1,2.09,2.09,0,0,0-.6.4c-.2.2-.3.4-.5.6a6.89,6.89,0,0,0-.3.8,1.57,1.57,0,0,0,.3,1.4,1.66,1.66,0,0,0,1.2.5,2,2,0,0,0,.8-.1l.6-.3c.1.1.2.1.2.2a.37.37,0,0,1,.1.3.73.73,0,0,1-.6.6,2.55,2.55,0,0,1-1.3.2,5,5,0,0,1-1.2-.2,4.05,4.05,0,0,1-.9-.5,2.62,2.62,0,0,1-.5-.9,2.82,2.82,0,0,1,0-1.3,5,5,0,0,1,.4-1.3,2.36,2.36,0,0,1,.8-.9,8.79,8.79,0,0,1,1-.6A5,5,0,0,1,207,98a1.48,1.48,0,0,1,.7.1.76.76,0,0,1,.5.2l.3.3a.37.37,0,0,1,.1.3c0,.1-.1.2-.1.3l-.2.2c-.2-.1-.3-.2-.5-.3A2.2,2.2,0,0,1,207,99.2Z" transform="translate(-50.5 -42.9)"/><path class="cls-2" d="M214.9,101.1a3.37,3.37,0,0,1-.4,1.2,3.11,3.11,0,0,1-.7.9,2.07,2.07,0,0,1-1,.6,5,5,0,0,1-1.2.2,3.59,3.59,0,0,1-1.1-.2,1.56,1.56,0,0,1-.8-.6,1.8,1.8,0,0,1-.4-.9,2.44,2.44,0,0,1,0-1.2,3.37,3.37,0,0,1,.4-1.2,3.11,3.11,0,0,1,.7-.9,3.33,3.33,0,0,1,1-.6,5,5,0,0,1,1.2-.2,3.59,3.59,0,0,1,1.1.2,1.56,1.56,0,0,1,.8.6,4.05,4.05,0,0,1,.5.9A5.74,5.74,0,0,1,214.9,101.1Zm-2.5-2a1.66,1.66,0,0,0-1.2.5,2.59,2.59,0,0,0-.6,1.4,2,2,0,0,0,.2,1.4,1.29,1.29,0,0,0,1.1.5,1.66,1.66,0,0,0,1.2-.5,2.59,2.59,0,0,0,.6-1.4,2,2,0,0,0-.2-1.4A1.43,1.43,0,0,0,212.4,99.1Z" transform="translate(-50.5 -42.9)"/><path class="cls-2" d="M220,99.4a1.22,1.22,0,0,0-.9-.3,2.2,2.2,0,0,0-.8.1,1.42,1.42,0,0,1-.6.2l-.6,4.4c-.1,0-.1,0-.2.1h-.3a.75.75,0,0,1-.5-.1c-.1-.1-.1-.2-.1-.4l.5-3.9a.52.52,0,0,1,.2-.4,1.38,1.38,0,0,1,.4-.3,7.93,7.93,0,0,1,.9-.4,5,5,0,0,1,1.2-.2,3,3,0,0,1,1.8.5,1.94,1.94,0,0,1,.5,1.6l-.5,3.6c-.1,0-.1,0-.2.1h-.3a.75.75,0,0,1-.5-.1c-.1-.1-.1-.2-.1-.4l.4-3.1A1.33,1.33,0,0,0,220,99.4Z" transform="translate(-50.5 -42.9)"/><path class="cls-2" d="M227.5,98.2c.2,0,.3,0,.4.1s.1.2.1.4a1.69,1.69,0,0,1-.2.5,5.9,5.9,0,0,1-.4.8,9.25,9.25,0,0,1-.5,1,4.67,4.67,0,0,0-.5,1c-.2.3-.4.7-.6,1a5.58,5.58,0,0,1-.5.8c-.1,0-.2.1-.3.1s-.3.1-.4.1c-.4,0-.6-.1-.7-.3a4.65,4.65,0,0,1-.3-.9c-.1-.4-.3-.9-.4-1.4a8.33,8.33,0,0,0-.4-1.5c-.1-.5-.2-.9-.3-1.3.1-.1.2-.2.3-.2s.3-.1.4-.1.3,0,.4.1a.52.52,0,0,1,.2.4l.4,2c0,.2.1.3.1.5s.1.4.1.6a4.33,4.33,0,0,0,.1.5c0,.2.1.3.1.4h.1c.4-.7.7-1.5,1.1-2.3a12.78,12.78,0,0,0,.9-2.2A2.81,2.81,0,0,1,227.5,98.2Z" transform="translate(-50.5 -42.9)"/><path class="cls-2" d="M229.9,103.9c-.1,0-.1,0-.2.1h-.3a.75.75,0,0,1-.5-.1c-.1-.1-.1-.2-.1-.4l.7-5a.37.37,0,0,0,.3-.1h.3a.75.75,0,0,1,.5.1c.1.1.1.2.1.5Zm-.4-7.3a.55.55,0,0,1,.3-.5,1.42,1.42,0,0,1,.6-.2.76.76,0,0,1,.5.2.44.44,0,0,1,.1.5c-.1.2-.1.4-.3.5a1.07,1.07,0,0,1-.6.2.76.76,0,0,1-.5-.2A.75.75,0,0,1,229.5,96.6Z" transform="translate(-50.5 -42.9)"/><path class="cls-2" d="M236.7,98.2c.2,0,.3,0,.4.1s.1.2.1.4a1.69,1.69,0,0,1-.2.5,5.9,5.9,0,0,1-.4.8,9.25,9.25,0,0,1-.5,1,4.67,4.67,0,0,0-.5,1c-.2.3-.4.7-.6,1a5.58,5.58,0,0,1-.5.8c-.1,0-.2.1-.3.1s-.3.1-.4.1c-.4,0-.6-.1-.7-.3a4.65,4.65,0,0,1-.3-.9c-.1-.4-.3-.9-.4-1.4a8.33,8.33,0,0,0-.4-1.5,7.89,7.89,0,0,1-.3-1.3c.1-.1.2-.2.3-.2s.3-.1.4-.1.3,0,.4.1a.52.52,0,0,1,.2.4l.4,2c0,.2.1.3.1.5s.1.4.1.6a4.33,4.33,0,0,0,.1.5c0,.2.1.3.1.4h.1c.4-.7.7-1.5,1.1-2.3s.7-1.5.9-2.2A2.2,2.2,0,0,1,236.7,98.2Z" transform="translate(-50.5 -42.9)"/><path class="cls-2" d="M239,103.9c-.1,0-.1,0-.2.1h-.3a.75.75,0,0,1-.5-.1c-.1-.1-.1-.2-.1-.4l.7-5a.37.37,0,0,0,.3-.1h.3a.75.75,0,0,1,.5.1c.1.1.1.2.1.5Zm-.4-7.3a.55.55,0,0,1,.3-.5,1.42,1.42,0,0,1,.6-.2.76.76,0,0,1,.5.2.44.44,0,0,1,.1.5.55.55,0,0,1-.3.5,1.07,1.07,0,0,1-.6.2.76.76,0,0,1-.5-.2A.75.75,0,0,1,238.6,96.6Z" transform="translate(-50.5 -42.9)"/><path class="cls-2" d="M243.6,98.1a2.86,2.86,0,0,1,1.7.5,1.72,1.72,0,0,1,.5,1.5l-.4,2.8a.52.52,0,0,1-.2.4,1.38,1.38,0,0,1-.4.3,6.89,6.89,0,0,1-.8.3,4.12,4.12,0,0,1-1.2.1,3,3,0,0,1-1.8-.5,1.23,1.23,0,0,1-.5-1.3,1.85,1.85,0,0,1,.7-1.2,3.33,3.33,0,0,1,1.5-.5l1.7-.2V100a1.08,1.08,0,0,0-.2-.8c-.2-.2-.5-.2-.9-.2a2.77,2.77,0,0,0-.9.1,6.89,6.89,0,0,0-.8.3l-.2-.2a.19.19,0,0,1,0-.3c0-.1.1-.2.1-.3s.2-.2.3-.2a1.88,1.88,0,0,1,.8-.2C243,98.2,243.3,98.1,243.6,98.1Zm-.6,5a1.48,1.48,0,0,0,.7-.1c.2-.1.4-.1.5-.2l.2-1.5-1.3.1a2,2,0,0,0-.9.2.92.92,0,0,0-.4.6c0,.3,0,.5.2.6A1.33,1.33,0,0,0,243,103.1Z" transform="translate(-50.5 -42.9)"/><path class="cls-2" d="M247.6,104a.75.75,0,0,1-.5-.1c-.1-.1-.1-.2-.1-.4l1-7.2c.1,0,.1,0,.2-.1h.3a.75.75,0,0,1,.5.1c.1.1.1.2.1.4l-1,7.2a.37.37,0,0,0-.3.1C247.9,103.9,247.8,104,247.6,104Z" transform="translate(-50.5 -42.9)"/><path class="cls-2" d="M251.3,103.9c-.1,0-.1,0-.2.1h-.3a.75.75,0,0,1-.5-.1c-.1-.1-.1-.2-.1-.4l.7-5a.37.37,0,0,0,.3-.1h.3a.75.75,0,0,1,.5.1c.1.1.1.2.1.5Zm-.4-7.3a.55.55,0,0,1,.3-.5,1.42,1.42,0,0,1,.6-.2.76.76,0,0,1,.5.2.44.44,0,0,1,.1.5c-.1.2-.1.4-.3.5a1.07,1.07,0,0,1-.6.2.76.76,0,0,1-.5-.2A.44.44,0,0,1,250.9,96.6Z" transform="translate(-50.5 -42.9)"/><path class="cls-2" d="M254.6,102.9a1.45,1.45,0,0,0,.7.2.6.6,0,0,0,.4-.1c.2,0,.3-.1.4-.1s.1.1.1.2v.3a.66.66,0,0,1-.4.5,2.51,2.51,0,0,1-1,.2,2,2,0,0,1-1.4-.4,1.7,1.7,0,0,1-.4-1.3l.7-5.6c.1,0,.1,0,.2-.1h.3a.75.75,0,0,1,.5.1c.1.1.1.2.1.4l-.2,1.2h1.9a.31.31,0,0,0,.1.2v.3a.47.47,0,0,1-.5.5h-1.5l-.4,2.8A5.74,5.74,0,0,1,254.6,102.9Z" transform="translate(-50.5 -42.9)"/><path class="cls-2" d="M258.6,101.7c.1.5.2.8.5,1a2.13,2.13,0,0,0,1.2.3,2.39,2.39,0,0,0,.9-.2,4.88,4.88,0,0,0,.7-.3.55.55,0,0,1,.3.5.76.76,0,0,1-.2.4,2.19,2.19,0,0,1-.5.3,6.37,6.37,0,0,1-.7.2c-.2,0-.5.1-.8.1a3.73,3.73,0,0,1-1.2-.2,1.46,1.46,0,0,1-.9-.6,4.05,4.05,0,0,1-.5-.9,2.85,2.85,0,0,1,0-1.3,5,5,0,0,1,.4-1.3,2.18,2.18,0,0,1,.7-.9,8.79,8.79,0,0,1,1-.6,4.25,4.25,0,0,1,1.1-.2,3,3,0,0,1,1,.2,1.79,1.79,0,0,1,.7.5,2,2,0,0,1,.4.8,3.08,3.08,0,0,1,.1,1,.52.52,0,0,1-.2.4.76.76,0,0,1-.4.2Zm1.9-2.6a1.92,1.92,0,0,0-1.2.4,2.26,2.26,0,0,0-.6,1.3l3-.4a1.22,1.22,0,0,0-.3-.9A1,1,0,0,0,260.5,99.1Zm1.4-3.6a.76.76,0,0,1,.5.2.52.52,0,0,1,.2.4c0,.1-.1.2-.1.3l-.3.3-1.2,1a.76.76,0,0,1-.5-.2c-.1-.1-.1-.2-.1-.4s0-.1.1-.2.1-.1.2-.2Z" transform="translate(-50.5 -42.9)"/></svg>